<?xml version="1.0" standalone="no"?>
<!DOCTYPE svg PUBLIC "-//W3C//DTD SVG 20010904//EN"
 "http://www.w3.org/TR/2001/REC-SVG-20010904/DTD/svg10.dtd">
<svg version="1.0" xmlns="http://www.w3.org/2000/svg"
 width="300.000000pt" height="214.000000pt" viewBox="0 0 300.000000 214.000000"
 preserveAspectRatio="xMidYMid meet">
<metadata>
Created by potrace 1.10, written by Peter Selinger 2001-2011
</metadata>
<g transform="translate(0.000000,214.000000) scale(0.100000,-0.100000)"
fill="#000000" stroke="none">
<path d="M1133 1798 l-363 -331 0 -101 0 -100 33 31 c31 30 263 241 546 498
79 72 146 131 150 132 7 3 28 -14 161 -137 57 -52 108 -99 114 -105 71 -64
132 -119 186 -169 170 -157 263 -241 271 -244 5 -2 9 41 8 95 l-1 98 -362 329
c-199 181 -366 331 -371 332 -6 2 -173 -146 -372 -328z m422 244 c49 -46 363
-331 425 -386 25 -21 87 -79 138 -128 l92 -88 -1 -53 c0 -28 -3 -46 -6 -39 -2
6 -11 12 -18 12 -7 0 -33 19 -57 43 -47 45 -228 212 -432 398 -26 24 -65 60
-85 79 -58 54 -67 60 -100 70 -33 9 -33 10 -251 -190 -360 -329 -441 -401
-449 -396 -4 3 -7 24 -6 48 2 34 9 48 41 76 22 20 66 60 99 91 33 31 83 76
110 101 58 52 266 243 305 280 65 62 135 120 145 120 5 0 28 -17 50 -38z"/>
<path d="M1318 1652 l-178 -166 0 -323 0 -323 483 0 482 0 -2 215 -3 214 -72
70 -73 69 -3 -209 -2 -209 -328 0 -327 0 5 224 5 224 99 91 99 91 46 -42 c25
-23 72 -66 104 -95 l58 -53 -3 -180 -3 -180 84 0 c72 0 82 2 77 16 -3 9 -6
104 -7 212 l-1 197 -176 160 c-96 88 -178 161 -181 162 -3 1 -86 -73 -183
-165z m225 82 c17 -15 70 -62 117 -105 47 -43 102 -93 122 -111 20 -18 41 -44
46 -58 5 -14 10 -93 10 -177 0 -129 -2 -153 -16 -166 -9 -8 -27 -14 -39 -13
-45 4 -49 16 -52 182 -2 116 -6 163 -17 178 -30 43 -187 176 -208 176 -22 0
-78 -41 -158 -116 -79 -74 -77 -66 -78 -284 -1 -107 -1 -207 -1 -222 1 -18 10
-33 26 -44 26 -17 126 -20 468 -12 65 2 121 0 123 -4 5 -8 52 9 71 26 8 8 13
63 15 174 1 112 6 162 14 162 6 0 27 -14 47 -31 l37 -32 0 -187 c0 -166 -2
-189 -17 -194 -20 -8 -839 -7 -859 1 -12 4 -14 59 -14 302 l0 297 98 90 c53
49 122 112 152 141 30 29 61 53 69 53 7 0 27 -12 44 -26z"/>
<path d="M972 1336 l-73 -71 1 -212 0 -213 78 0 77 0 0 285 c0 157 -2 284 -5
284 -3 -1 -38 -34 -78 -73z m48 -235 c0 -137 -4 -212 -11 -216 -16 -11 -59
-13 -65 -4 -3 5 -5 90 -5 190 l-1 181 28 29 c52 55 54 49 54 -180z"/>
<path d="M8 350 l-3 -160 111 0 c110 0 113 1 143 29 20 18 31 39 31 55 0 27
-39 76 -61 76 -6 0 0 10 15 21 40 31 34 85 -13 116 -29 20 -47 23 -127 23
l-93 0 -3 -160z m160 114 c26 -18 29 -56 6 -78 -8 -9 -32 -16 -52 -16 l-37 0
2 53 c1 28 2 53 3 55 1 9 60 -1 78 -14z m-118 -47 c0 -18 4 -38 9 -46 5 -8 6
-24 1 -37 -5 -13 -10 -41 -11 -63 -2 -22 -6 -38 -11 -35 -4 3 -8 55 -8 115 0
71 4 108 10 104 6 -3 10 -21 10 -38z m135 -97 c8 -7 15 -27 15 -46 0 -39 -21
-54 -77 -54 l-38 0 0 61 0 61 42 -5 c24 -2 50 -10 58 -17z"/>
<path d="M340 351 l0 -161 43 0 42 0 -3 48 c-2 27 -2 62 0 78 3 28 5 26 62
-48 57 -77 59 -78 102 -78 l44 0 -55 73 c-58 78 -63 87 -42 87 8 0 23 10 35
23 30 32 29 77 -4 108 -23 21 -36 24 -125 27 l-99 4 0 -161z m150 109 c11 -11
20 -28 20 -38 0 -27 -37 -62 -65 -62 -24 0 -25 3 -25 60 0 57 1 60 25 60 14 0
34 -9 45 -20z"/>
<path d="M784 474 c-8 -19 -42 -90 -74 -156 -33 -66 -60 -122 -60 -124 0 -2
13 -4 28 -4 24 0 32 7 47 40 l18 40 64 0 64 0 17 -40 c16 -38 19 -40 60 -40
24 0 42 4 40 8 -1 5 -34 77 -73 160 -60 131 -73 152 -93 152 -17 0 -27 -9 -38
-36z m52 -123 l23 -51 -50 0 c-28 0 -49 4 -47 8 35 83 43 100 46 97 3 -2 15
-27 28 -54z"/>
<path d="M1020 350 l0 -160 25 0 25 0 0 113 0 112 28 -35 c85 -109 166 -190
188 -190 l24 0 0 160 0 160 -29 0 -29 0 5 -107 c4 -99 3 -106 -11 -89 -9 11
-51 59 -93 108 -62 70 -83 88 -105 88 l-28 0 0 -160z"/>
<path d="M1370 350 l0 -162 113 4 c107 3 116 5 151 32 48 36 70 86 63 144 -11
96 -74 135 -224 140 l-103 4 0 -162z m202 93 c55 -56 47 -166 -16 -204 -17
-10 -48 -19 -68 -19 l-38 0 0 131 0 132 46 -6 c34 -3 55 -13 76 -34z"/>
<path d="M1766 503 c-3 -3 -6 -75 -6 -160 0 -128 2 -153 15 -153 12 0 15 22
17 121 l3 120 104 -120 c57 -67 110 -121 117 -121 11 0 14 30 14 160 0 134 -2
160 -15 160 -12 0 -15 -22 -17 -115 l-3 -115 -94 105 c-92 104 -122 130 -135
118z"/>
<path d="M2135 358 c-38 -83 -71 -155 -73 -160 -2 -4 3 -8 12 -8 9 0 24 21 37
50 l21 50 70 0 69 0 21 -50 c18 -44 24 -50 50 -50 16 0 28 4 26 8 -32 82 -146
312 -153 311 -5 0 -41 -68 -80 -151z m72 -46 c-27 -2 -51 -1 -53 1 -2 2 8 30
22 63 l27 59 27 -60 27 -60 -50 -3z"/>
<path d="M2400 348 c0 -138 2 -158 16 -158 14 0 16 16 13 125 -2 69 -2 125 1
125 3 0 32 -57 64 -125 33 -69 64 -125 71 -125 6 0 38 56 71 124 32 69 61 125
64 125 3 1 4 -55 2 -124 l-3 -125 30 0 31 0 0 155 0 155 -30 0 c-29 0 -34 -6
-90 -121 l-59 -120 -60 119 c-55 109 -63 120 -90 124 l-31 5 0 -159z"/>
<path d="M2814 501 c-2 -2 -4 -73 -4 -158 l0 -153 95 0 c57 0 95 4 95 10 0 6
-28 10 -65 10 l-65 0 0 70 0 70 55 0 c30 0 55 5 55 10 0 6 -25 10 -55 10 l-55
0 0 55 0 55 66 0 c43 0 64 4 62 11 -3 10 -174 19 -184 10z"/>
<path d="M768 41 l17 -38 12 36 c16 45 16 50 -1 28 -12 -15 -14 -16 -20 -2 -3
8 -10 15 -15 15 -5 0 -2 -17 7 -39z"/>
<path d="M840 65 c-26 -32 13 -81 48 -59 22 14 27 41 12 59 -16 19 -44 19 -60
0z m49 -14 c16 -28 -14 -51 -36 -28 -13 13 -14 19 -3 31 17 21 27 20 39 -3z"/>
<path d="M932 43 c2 -30 8 -39 24 -41 18 -3 22 3 26 33 2 20 0 38 -4 41 -4 3
-8 -11 -8 -31 0 -25 -4 -35 -12 -32 -7 2 -12 18 -12 36 1 17 -2 31 -8 31 -5 0
-8 -17 -6 -37z"/>
<path d="M1012 38 l1 -43 4 38 c4 35 12 45 26 30 4 -3 2 -12 -5 -20 -9 -11 -8
-18 4 -29 14 -14 15 -11 14 23 -1 31 -5 39 -23 41 -21 3 -23 0 -21 -40z"/>
<path d="M1120 65 c-28 -34 11 -77 52 -58 22 11 22 11 -7 10 -21 -2 -30 3 -33
17 -6 27 13 42 33 26 17 -14 31 -8 20 9 -9 16 -51 13 -65 -4z"/>
<path d="M1220 65 c-26 -32 13 -81 48 -59 22 14 27 41 12 59 -16 19 -44 19
-60 0z m50 -11 c11 -12 10 -18 -3 -32 -16 -15 -18 -15 -34 0 -13 14 -14 20 -3
32 16 20 24 20 40 0z"/>
<path d="M1310 40 c0 -22 5 -40 10 -40 6 0 10 8 10 17 0 15 2 15 14 -2 13 -18
14 -18 21 6 l9 24 7 -25 c6 -20 7 -17 8 18 1 50 -14 56 -25 10 l-7 -33 -14 33
c-18 44 -33 40 -33 -8z"/>
<path d="M1421 38 c1 -24 3 -35 6 -25 2 9 10 17 18 17 15 0 28 27 19 41 -3 5
-14 9 -25 9 -16 0 -19 -7 -18 -42z"/>
<path d="M1495 44 c-19 -46 -19 -47 4 -32 15 9 23 9 35 -1 9 -8 16 -11 16 -7
0 12 -29 76 -34 76 -3 0 -13 -16 -21 -36z"/>
<path d="M1571 38 c2 -33 3 -36 6 -14 l5 29 23 -29 24 -29 -1 45 c0 40 -1 42
-7 15 l-8 -30 -13 28 c-19 39 -30 33 -29 -15z"/>
<path d="M1655 63 c4 -10 10 -28 12 -40 7 -30 23 -30 23 0 0 13 5 28 12 35 6
6 9 15 5 19 -4 3 -14 -2 -22 -13 -13 -17 -14 -17 -15 -1 0 9 -5 17 -11 17 -7
0 -8 -7 -4 -17z"/>
<path d="M1754 69 c-4 -7 3 -19 15 -28 12 -9 19 -20 15 -24 -4 -4 -14 -1 -22
6 -13 10 -14 9 -10 -3 7 -22 37 -24 45 -4 4 10 0 22 -10 29 -22 16 -22 26 0
18 11 -4 14 -3 9 5 -9 15 -33 15 -42 1z"/>
<path d="M1822 43 c2 -29 8 -38 23 -40 11 -2 14 0 8 3 -7 3 -13 21 -13 40 0
19 -5 34 -11 34 -6 0 -9 -16 -7 -37z"/>
<path d="M1891 66 c-16 -19 -11 -46 12 -60 25 -16 52 4 52 40 0 24 -5 30 -26
32 -14 2 -31 -4 -38 -12z m49 -11 c15 -18 6 -45 -15 -45 -18 0 -30 24 -21 45
7 19 20 19 36 0z"/>
<path d="M1992 68 c-30 -30 0 -75 43 -64 35 9 33 36 -2 35 l-28 -1 25 -8 c22
-6 23 -8 7 -15 -23 -9 -40 6 -35 31 3 14 11 18 32 16 17 -2 25 1 21 7 -8 15
-48 14 -63 -1z"/>
<path d="M2096 56 c-3 -13 -9 -32 -12 -41 -6 -15 -4 -15 15 -3 18 11 23 11 31
-2 17 -27 20 -3 5 33 -18 43 -30 47 -39 13z"/>
<path d="M2172 40 c0 -38 1 -40 7 -16 l6 29 14 -26 c20 -38 31 -33 31 13 0 23
-5 40 -11 40 -7 0 -9 -10 -5 -27 l7 -28 -25 30 -25 30 1 -45z"/>
</g>
</svg>
