<?xml version="1.0" encoding="utf-8"?>
<svg id="master-artboard" viewBox="0 0 800 800" version="1.1" xmlns="http://www.w3.org/2000/svg" x="0px" y="0px" style="enable-background:new 0 0 1400 980;" width="800px" height="800px"><defs><linearGradient id="gradient-0" gradientUnits="userSpaceOnUse" x1="221.33062410354614" y1="1257" x2="221.33062410354614" y2="1289.6528015136719">
                <stop offset="0" style="stop-color: #333333"/>
                <stop offset="1" style="stop-color: #000000"/>
              </linearGradient><radialGradient id="gradient-1" gradientUnits="objectBoundingBox" cx="0.5" cy="0.5" r="0.5">
                <stop offset="0" style="stop-color: #333333"/>
                <stop offset="1" style="stop-color: #000000"/>
              </radialGradient><style id="ee-google-fonts">@import url(https://fonts.googleapis.com/css?family=Balthazar:400);</style></defs><rect id="ee-background" x="0" y="0" width="800" height="800" style="fill: white; fill-opacity: 0; pointer-events: none;"/><g transform="matrix(7.291037559509278, 0, 0, 7.291037559509278, -1318.9374019454904, -6713.11933673402)"><g id="Layer_2_42_" transform="matrix(1, 0, 0, 1, 0, 0)">
	<g id="Layer_1-2_40_">
		<g>
			<path class="st0" d="M236,1028c-2.1,0-4.2-0.8-5.8-2.4l-44.7-44.7c-3.2-3.2-3.2-8.4-0.1-11.6l0.1-0.1l44.7-44.7&#10;&#9;&#9;&#9;&#9;c1.6-1.6,3.6-2.4,5.8-2.4c0,0,0,0,0,0c2.1,0,4.2,0.8,5.7,2.3l0.2,0.2l44.7,44.7c3.2,3.2,3.2,8.4,0.1,11.6l-0.1,0.1l-44.7,44.7&#10;&#9;&#9;&#9;&#9;C240.2,1027.2,238.1,1028,236,1028z M189.8,973.3L189.8,973.3c-1,1-1,2.4-0.1,3.3l44.7,44.7c0.9,0.9,2.3,0.9,3.2,0l44.7-44.7&#10;&#9;&#9;&#9;&#9;c0.9-0.9,0.9-2.3,0-3.2l-44.8-44.8c-0.4-0.4-1-0.6-1.6-0.6c0,0,0,0,0,0c-0.6,0-1.2,0.2-1.6,0.7L189.8,973.3z" style="fill: rgb(255, 255, 255); fill-opacity: 1;"/>
		</g>
	</g>
</g></g><path d="M 294.83782958984375 298.4800109863281 L 301.46783447265625 298.4800109863281 L 304.2478332519531 298.2900085449219 L 304.4378356933594 298.70001220703125 L 296.7078552246094 311.489990234375 L 300.59783935546875 311.3399963378906 L 303.6678466796875 310.9100036621094 L 304.0778503417969 309.92999267578125 L 304.48785400390625 310.0199890136719 L 303.7478332519531 313.739990234375 L 303.3078308105469 313.7200012207031 L 303.33782958984375 313.07000732421875 L 299.9078369140625 312.8800048828125 L 296.4278259277344 312.8800048828125 L 293.9078369140625 313.0199890136719 L 293.7078552246094 312.6400146484375 L 301.1478271484375 300.0400085449219 L 297.47784423828125 300.17999267578125 L 294.9078369140625 300.4700012207031 L 294.787841796875 301.42999267578125 L 294.33782958984375 301.42999267578125 L 294.1878356933594 297.7799987792969 L 294.6478271484375 297.7799987792969 L 294.83782958984375 298.4800109863281 Z" transform="matrix(21.327150344848633, 0, 0, 21.327150344848633, -5971.8017578125, -6557.775390625)" style="fill: rgb(255, 255, 255); white-space: pre; color: rgb(51, 51, 51);"/></svg>