<?xml version="1.0" standalone="no"?>
<!DOCTYPE svg PUBLIC "-//W3C//DTD SVG 20010904//EN"
 "http://www.w3.org/TR/2001/REC-SVG-20010904/DTD/svg10.dtd">
<svg version="1.0" xmlns="http://www.w3.org/2000/svg"
 width="350.000000pt" height="225.000000pt" viewBox="0 0 350.000000 225.000000"
 preserveAspectRatio="xMidYMid meet">

<g transform="translate(0.000000,225.000000) scale(0.100000,-0.100000)"
fill="#000000" stroke="none">
<path d="M575 2181 c-22 -10 -55 -34 -72 -54 -56 -64 -63 -109 -63 -402 0
-315 -6 -345 -81 -417 -36 -35 -59 -49 -89 -54 l-40 -7 0 -68 c0 -68 0 -69 27
-69 38 0 105 -43 136 -87 41 -59 46 -109 47 -390 0 -284 6 -323 57 -391 43
-57 93 -76 221 -80 l112 -4 0 66 0 66 -70 0 c-39 0 -86 6 -106 15 -59 25 -64
49 -64 338 0 273 -8 349 -45 413 -31 53 -88 103 -126 111 -40 8 -45 19 -11 26
62 13 134 85 163 167 8 24 13 126 16 325 2 178 8 301 15 318 21 53 52 67 144
67 l84 0 0 65 0 65 -107 0 c-83 0 -117 -5 -148 -19z"/>
<path d="M2570 2115 l0 -65 85 0 c79 0 87 -2 116 -28 43 -38 48 -75 48 -384 1
-237 3 -262 22 -314 26 -68 83 -128 138 -145 45 -13 45 -24 3 -34 -43 -9 -100
-61 -130 -119 l-27 -51 -6 -305 c-3 -181 -10 -315 -16 -330 -22 -52 -48 -65
-144 -68 l-89 -4 0 -64 0 -64 99 0 c149 0 214 30 264 125 20 38 22 58 27 345
5 260 9 311 24 345 31 72 106 135 161 135 24 0 25 2 25 70 0 64 -2 70 -20 70
-34 0 -96 37 -127 75 -52 62 -55 87 -62 410 l-6 300 -31 55 c-25 43 -42 61
-84 83 -48 25 -62 27 -161 27 l-109 0 0 -65z"/>
<path d="M1439 2005 c-56 -18 -123 -81 -140 -133 -7 -20 -13 -59 -13 -87 0
-71 19 -118 66 -164 145 -145 388 -42 388 164 0 160 -149 269 -301 220z m161
-44 c19 -10 49 -37 65 -60 27 -38 30 -51 30 -116 0 -65 -3 -78 -30 -116 -39
-55 -86 -79 -153 -79 -59 0 -94 15 -134 57 -36 37 -48 73 -48 138 0 85 26 134
95 176 40 25 128 25 175 0z"/>
<path d="M911 1973 c13 -21 49 -77 81 -125 l58 -87 0 -101 c0 -93 1 -100 20
-100 19 0 20 7 20 98 l0 97 80 123 c44 68 80 126 80 128 0 3 -10 4 -22 2 -16
-2 -40 -32 -85 -103 -34 -55 -66 -101 -70 -102 -5 -2 -38 44 -73 102 -52 84
-70 105 -88 105 l-24 0 23 -37z"/>
<path d="M1840 1840 c0 -153 2 -175 21 -211 22 -45 80 -78 134 -79 49 0 118
40 137 80 25 49 27 380 3 380 -13 0 -15 -24 -15 -155 0 -119 -4 -164 -16 -195
-43 -107 -198 -89 -224 25 -5 22 -10 104 -10 183 0 119 -2 142 -15 142 -13 0
-15 -26 -15 -170z"/>
<path d="M2270 1786 c0 -219 1 -226 20 -226 19 0 20 7 20 105 l0 105 43 0 43
0 60 -102 c44 -76 66 -104 82 -106 12 -2 22 -1 22 2 0 3 -27 50 -60 104 -33
55 -60 102 -60 106 0 3 9 6 21 6 12 0 36 15 55 34 38 38 45 85 20 135 -21 40
-60 54 -168 59 l-98 4 0 -226z m215 159 c30 -29 33 -74 6 -106 -17 -21 -30
-24 -100 -27 l-81 -4 0 81 0 81 75 0 c67 0 79 -3 100 -25z"/>
<path d="M1348 1429 c-47 -14 -111 -69 -133 -115 -23 -49 -23 -149 0 -198 53
-110 199 -156 313 -97 77 39 112 101 112 196 0 95 -35 157 -112 196 -45 23
-131 32 -180 18z m142 -94 c37 -19 63 -68 63 -120 0 -82 -52 -135 -133 -135
-23 0 -54 7 -70 15 -82 42 -83 195 -2 239 35 20 105 20 142 1z"/>
<path d="M1848 1428 c-47 -12 -111 -67 -133 -114 -23 -49 -23 -149 0 -198 54
-113 200 -154 348 -97 l27 11 0 110 0 110 -75 0 -75 0 0 -45 c0 -45 0 -45 35
-45 33 0 35 -2 35 -34 0 -26 -5 -35 -22 -40 -42 -11 -109 -6 -139 10 -31 16
-69 81 -69 119 0 38 38 103 69 119 40 21 120 21 150 0 22 -16 24 -15 55 15
l31 32 -25 19 c-45 35 -139 47 -212 28z"/>
<path d="M2308 1429 c-47 -14 -111 -69 -133 -115 -23 -49 -23 -149 0 -198 53
-110 199 -156 313 -97 77 39 112 101 112 196 0 95 -35 157 -112 196 -45 23
-131 32 -180 18z m142 -94 c37 -19 63 -68 63 -120 0 -82 -52 -135 -133 -135
-23 0 -54 7 -70 15 -82 42 -83 195 -2 239 35 20 105 20 142 1z"/>
<path d="M890 1210 l0 -210 130 0 130 0 0 45 0 45 -85 0 -85 0 0 165 0 165
-45 0 -45 0 0 -210z"/>
<path d="M910 615 l0 -255 25 0 25 0 0 120 0 120 140 0 140 0 0 -120 0 -120
25 0 25 0 0 255 0 255 -25 0 -25 0 0 -110 0 -110 -140 0 -140 0 0 110 0 110
-25 0 -25 0 0 -255z"/>
<path d="M1430 615 l0 -255 160 0 160 0 0 25 0 25 -135 0 -135 0 0 95 0 95
120 0 120 0 0 25 0 25 -120 0 -120 0 0 85 0 85 130 0 130 0 0 25 0 25 -155 0
-155 0 0 -255z"/>
<path d="M1860 615 l0 -255 25 0 25 0 0 116 0 115 47 -3 48 -3 68 -112 c57
-94 73 -113 93 -113 13 0 24 2 24 6 0 3 -31 55 -70 115 -38 61 -70 113 -70
115 0 2 8 4 18 4 29 0 80 37 98 71 23 46 14 112 -21 149 -34 36 -91 50 -199
50 l-86 0 0 -255z m239 179 c25 -20 31 -34 31 -64 0 -30 -6 -44 -31 -64 -27
-23 -39 -26 -110 -26 l-79 0 0 90 0 90 79 0 c71 0 83 -3 110 -26z"/>
<path d="M2280 615 l0 -255 160 0 160 0 0 25 0 25 -135 0 -135 0 0 95 0 95
120 0 120 0 0 25 0 25 -120 0 -120 0 0 85 0 85 130 0 130 0 0 25 0 25 -155 0
-155 0 0 -255z"/>
</g>
</svg>
